<svg width="45" height="18" viewBox="0 0 45 18" fill="none" xmlns="http://www.w3.org/2000/svg">
<path d="M2.75781 17V2.69141H0.244141V1.35938L4.88477 0.961914V17H2.75781ZM14.2305 17C14.4382 15.7611 14.7318 14.6904 15.1113 13.7881C15.498 12.8857 16.1784 11.6468 17.1523 10.0713L21.4922 3.08887H13.3066V1.10156H23.5117V3.08887C19.4368 9.09733 17.1559 13.7344 16.6689 17H14.2305ZM27.916 5.47363C27.25 5.47363 26.6842 5.24089 26.2188 4.77539C25.7604 4.3099 25.5312 3.74414 25.5312 3.07812C25.5312 2.41211 25.7604 1.84993 26.2188 1.3916C26.6842 0.933268 27.25 0.704102 27.916 0.704102C28.582 0.704102 29.1442 0.936849 29.6025 1.40234C30.068 1.86068 30.3008 2.41927 30.3008 3.07812C30.3008 3.74414 30.068 4.3099 29.6025 4.77539C29.1442 5.24089 28.582 5.47363 27.916 5.47363ZM27.916 4.41016C28.2741 4.41016 28.582 4.27767 28.8398 4.0127C29.1048 3.74772 29.2373 3.43978 29.2373 3.08887C29.2373 2.73079 29.1048 2.41927 28.8398 2.1543C28.582 1.88932 28.2741 1.75684 27.916 1.75684C27.5651 1.75684 27.2572 1.88932 26.9922 2.1543C26.7272 2.41927 26.5947 2.73079 26.5947 3.08887C26.5947 3.43978 26.7272 3.74772 26.9922 4.0127C27.2572 4.27767 27.5651 4.41016 27.916 4.41016ZM44.9424 16.1836C43.374 16.9928 41.6624 17.3975 39.8076 17.3975C37.3369 17.3975 35.4284 16.6742 34.082 15.2275C32.7357 13.7809 32.0625 11.7256 32.0625 9.06152C32.0625 6.40462 32.7464 4.34928 34.1143 2.89551C35.4893 1.43457 37.4264 0.704102 39.9258 0.704102C41.3438 0.704102 43.0088 0.936849 44.9209 1.40234V3.51855C42.7438 2.7666 41.0645 2.39062 39.8828 2.39062C38.1569 2.39062 36.8213 2.97428 35.876 4.1416C34.9307 5.30892 34.458 6.95605 34.458 9.08301C34.458 11.1169 34.9629 12.7174 35.9727 13.8848C36.9824 15.0521 38.3646 15.6357 40.1191 15.6357C41.6159 15.6357 43.2236 15.1738 44.9424 14.25V16.1836Z" fill="white" fill-opacity="0.7"/>
</svg>
