<svg width="47" height="18" viewBox="0 0 47 18" fill="none" xmlns="http://www.w3.org/2000/svg">
<path d="M0.826172 17V15.1416C1.44206 13.7021 2.68815 12.1338 4.56445 10.4365L5.77832 9.35156C7.33952 7.94076 8.12012 6.54069 8.12012 5.15137C8.12012 4.26335 7.85156 3.5651 7.31445 3.05664C6.78451 2.54818 6.05046 2.29395 5.1123 2.29395C4.0166 2.29395 2.72038 2.72005 1.22363 3.57227V1.70312C2.63444 1.03711 4.03809 0.704102 5.43457 0.704102C6.92415 0.704102 8.11654 1.10514 9.01172 1.90723C9.91406 2.70931 10.3652 3.77279 10.3652 5.09766C10.3652 6.05013 10.1361 6.89518 9.67773 7.63281C9.22656 8.37044 8.38151 9.26562 7.14258 10.3184L6.32617 11.0166C4.62891 12.4561 3.64779 13.8311 3.38281 15.1416H10.29V17H0.826172ZM18.6797 17V2.69141H16.166V1.35938L20.8066 0.961914V17H18.6797ZM29.916 5.47363C29.25 5.47363 28.6842 5.24089 28.2188 4.77539C27.7604 4.3099 27.5312 3.74414 27.5312 3.07812C27.5312 2.41211 27.7604 1.84993 28.2188 1.3916C28.6842 0.933268 29.25 0.704102 29.916 0.704102C30.582 0.704102 31.1442 0.936849 31.6025 1.40234C32.068 1.86068 32.3008 2.41927 32.3008 3.07812C32.3008 3.74414 32.068 4.3099 31.6025 4.77539C31.1442 5.24089 30.582 5.47363 29.916 5.47363ZM29.916 4.41016C30.2741 4.41016 30.582 4.27767 30.8398 4.0127C31.1048 3.74772 31.2373 3.43978 31.2373 3.08887C31.2373 2.73079 31.1048 2.41927 30.8398 2.1543C30.582 1.88932 30.2741 1.75684 29.916 1.75684C29.5651 1.75684 29.2572 1.88932 28.9922 2.1543C28.7272 2.41927 28.5947 2.73079 28.5947 3.08887C28.5947 3.43978 28.7272 3.74772 28.9922 4.0127C29.2572 4.27767 29.5651 4.41016 29.916 4.41016ZM46.9424 16.1836C45.374 16.9928 43.6624 17.3975 41.8076 17.3975C39.3369 17.3975 37.4284 16.6742 36.082 15.2275C34.7357 13.7809 34.0625 11.7256 34.0625 9.06152C34.0625 6.40462 34.7464 4.34928 36.1143 2.89551C37.4893 1.43457 39.4264 0.704102 41.9258 0.704102C43.3438 0.704102 45.0088 0.936849 46.9209 1.40234V3.51855C44.7438 2.7666 43.0645 2.39062 41.8828 2.39062C40.1569 2.39062 38.8213 2.97428 37.876 4.1416C36.9307 5.30892 36.458 6.95605 36.458 9.08301C36.458 11.1169 36.9629 12.7174 37.9727 13.8848C38.9824 15.0521 40.3646 15.6357 42.1191 15.6357C43.6159 15.6357 45.2236 15.1738 46.9424 14.25V16.1836Z" fill="white" fill-opacity="0.7"/>
</svg>
