<svg width="46" height="18" viewBox="0 0 46 18" fill="none" xmlns="http://www.w3.org/2000/svg">
<path d="M0.234375 16.8818V14.9053C1.74544 15.5068 2.93424 15.8076 3.80078 15.8076C4.82487 15.8076 5.65202 15.514 6.28223 14.9268C6.9196 14.3395 7.23828 13.5732 7.23828 12.6279C7.23828 10.3936 5.6735 9.27637 2.54395 9.27637H1.70605V7.84766L2.44727 7.83691C5.38346 7.83691 6.85156 6.80208 6.85156 4.73242C6.85156 3.10677 5.8776 2.29395 3.92969 2.29395C2.88411 2.29395 1.72396 2.59115 0.449219 3.18555V1.33789C1.70247 0.915365 2.90918 0.704102 4.06934 0.704102C5.65202 0.704102 6.86589 1.01921 7.71094 1.64941C8.55599 2.27962 8.97852 3.19271 8.97852 4.38867C8.97852 6.25781 7.87207 7.58984 5.65918 8.38477C8.22298 8.97917 9.50488 10.3828 9.50488 12.5957C9.50488 14.0924 9.01074 15.2669 8.02246 16.1191C7.03418 16.9714 5.67708 17.3975 3.95117 17.3975C2.97005 17.3975 1.73112 17.2256 0.234375 16.8818ZM13.748 17V15.1416C14.3639 13.7021 15.61 12.1338 17.4863 10.4365L18.7002 9.35156C20.2614 7.94076 21.042 6.54069 21.042 5.15137C21.042 4.26335 20.7734 3.5651 20.2363 3.05664C19.7064 2.54818 18.9723 2.29395 18.0342 2.29395C16.9385 2.29395 15.6423 2.72005 14.1455 3.57227V1.70312C15.5563 1.03711 16.96 0.704102 18.3564 0.704102C19.846 0.704102 21.0384 1.10514 21.9336 1.90723C22.8359 2.70931 23.2871 3.77279 23.2871 5.09766C23.2871 6.05013 23.0579 6.89518 22.5996 7.63281C22.1484 8.37044 21.3034 9.26562 20.0645 10.3184L19.248 11.0166C17.5508 12.4561 16.5697 13.8311 16.3047 15.1416H23.2119V17H13.748ZM28.916 5.47363C28.25 5.47363 27.6842 5.24089 27.2188 4.77539C26.7604 4.3099 26.5312 3.74414 26.5312 3.07812C26.5312 2.41211 26.7604 1.84993 27.2188 1.3916C27.6842 0.933268 28.25 0.704102 28.916 0.704102C29.582 0.704102 30.1442 0.936849 30.6025 1.40234C31.068 1.86068 31.3008 2.41927 31.3008 3.07812C31.3008 3.74414 31.068 4.3099 30.6025 4.77539C30.1442 5.24089 29.582 5.47363 28.916 5.47363ZM28.916 4.41016C29.2741 4.41016 29.582 4.27767 29.8398 4.0127C30.1048 3.74772 30.2373 3.43978 30.2373 3.08887C30.2373 2.73079 30.1048 2.41927 29.8398 2.1543C29.582 1.88932 29.2741 1.75684 28.916 1.75684C28.5651 1.75684 28.2572 1.88932 27.9922 2.1543C27.7272 2.41927 27.5947 2.73079 27.5947 3.08887C27.5947 3.43978 27.7272 3.74772 27.9922 4.0127C28.2572 4.27767 28.5651 4.41016 28.916 4.41016ZM45.9424 16.1836C44.374 16.9928 42.6624 17.3975 40.8076 17.3975C38.3369 17.3975 36.4284 16.6742 35.082 15.2275C33.7357 13.7809 33.0625 11.7256 33.0625 9.06152C33.0625 6.40462 33.7464 4.34928 35.1143 2.89551C36.4893 1.43457 38.4264 0.704102 40.9258 0.704102C42.3438 0.704102 44.0088 0.936849 45.9209 1.40234V3.51855C43.7438 2.7666 42.0645 2.39062 40.8828 2.39062C39.1569 2.39062 37.8213 2.97428 36.876 4.1416C35.9307 5.30892 35.458 6.95605 35.458 9.08301C35.458 11.1169 35.9629 12.7174 36.9727 13.8848C37.9824 15.0521 39.3646 15.6357 41.1191 15.6357C42.6159 15.6357 44.2236 15.1738 45.9424 14.25V16.1836Z" fill="white" fill-opacity="0.7"/>
</svg>
