<svg width="34" height="18" viewBox="0 0 34 18" fill="none" xmlns="http://www.w3.org/2000/svg">
<path d="M4.05957 8.3418C3.18587 7.73307 2.57715 7.16732 2.2334 6.64453C1.89681 6.12174 1.72852 5.49154 1.72852 4.75391C1.72852 3.55078 2.16895 2.57324 3.0498 1.82129C3.93066 1.06934 5.08008 0.693359 6.49805 0.693359C7.80859 0.693359 8.86849 1.01204 9.67773 1.64941C10.4941 2.28678 10.9023 3.11393 10.9023 4.13086C10.9023 5.67057 9.91406 7.07422 7.9375 8.3418C10.3366 9.51628 11.5361 11.0309 11.5361 12.8857C11.5361 14.2106 11.0348 15.2956 10.0322 16.1406C9.02962 16.9785 7.74056 17.3975 6.16504 17.3975C4.58952 17.3975 3.31836 17.0036 2.35156 16.2158C1.38477 15.4209 0.901367 14.3789 0.901367 13.0898C0.901367 11.1849 1.9541 9.60221 4.05957 8.3418ZM6.75586 7.67578C8.23828 6.70182 8.97949 5.61686 8.97949 4.4209C8.97949 3.78353 8.72884 3.27148 8.22754 2.88477C7.7334 2.49089 7.08529 2.29395 6.2832 2.29395C5.5026 2.29395 4.86882 2.4873 4.38184 2.87402C3.89486 3.25358 3.65137 3.74772 3.65137 4.35645C3.65137 4.95085 3.86979 5.48438 4.30664 5.95703C4.75065 6.42969 5.56706 7.0026 6.75586 7.67578ZM5.20898 9.20117C4.35677 9.86003 3.77669 10.4365 3.46875 10.9307C3.16797 11.4176 3.01758 12.0264 3.01758 12.7568C3.01758 13.6663 3.3112 14.404 3.89844 14.9697C4.48568 15.5283 5.25911 15.8076 6.21875 15.8076C7.14258 15.8076 7.89453 15.5677 8.47461 15.0879C9.06185 14.6081 9.35547 13.985 9.35547 13.2188C9.35547 12.6029 9.17285 12.0837 8.80762 11.6611C8.44954 11.2314 7.7513 10.7087 6.71289 10.0928L5.20898 9.20117ZM15.9941 5.47363C15.3281 5.47363 14.7624 5.24089 14.2969 4.77539C13.8385 4.3099 13.6094 3.74414 13.6094 3.07812C13.6094 2.41211 13.8385 1.84993 14.2969 1.3916C14.7624 0.933268 15.3281 0.704102 15.9941 0.704102C16.6602 0.704102 17.2223 0.936849 17.6807 1.40234C18.1462 1.86068 18.3789 2.41927 18.3789 3.07812C18.3789 3.74414 18.1462 4.3099 17.6807 4.77539C17.2223 5.24089 16.6602 5.47363 15.9941 5.47363ZM15.9941 4.41016C16.3522 4.41016 16.6602 4.27767 16.918 4.0127C17.1829 3.74772 17.3154 3.43978 17.3154 3.08887C17.3154 2.73079 17.1829 2.41927 16.918 2.1543C16.6602 1.88932 16.3522 1.75684 15.9941 1.75684C15.6432 1.75684 15.3353 1.88932 15.0703 2.1543C14.8053 2.41927 14.6729 2.73079 14.6729 3.08887C14.6729 3.43978 14.8053 3.74772 15.0703 4.0127C15.3353 4.27767 15.6432 4.41016 15.9941 4.41016ZM33.0205 16.1836C31.4521 16.9928 29.7406 17.3975 27.8857 17.3975C25.415 17.3975 23.5065 16.6742 22.1602 15.2275C20.8138 13.7809 20.1406 11.7256 20.1406 9.06152C20.1406 6.40462 20.8245 4.34928 22.1924 2.89551C23.5674 1.43457 25.5046 0.704102 28.0039 0.704102C29.4219 0.704102 31.0869 0.936849 32.999 1.40234V3.51855C30.8219 2.7666 29.1426 2.39062 27.9609 2.39062C26.235 2.39062 24.8994 2.97428 23.9541 4.1416C23.0088 5.30892 22.5361 6.95605 22.5361 9.08301C22.5361 11.1169 23.041 12.7174 24.0508 13.8848C25.0605 15.0521 26.4427 15.6357 28.1973 15.6357C29.694 15.6357 31.3018 15.1738 33.0205 14.25V16.1836Z" fill="white" fill-opacity="0.7"/>
</svg>
